<svg width="30" height="30" viewBox="0 0 30 30" fill="none" xmlns="http://www.w3.org/2000/svg">
<path d="M10.3732 19.7431C8.7638 19.7415 7.15398 19.7611 5.54508 19.7312C4.40506 19.7101 3.39135 19.3062 2.57514 18.4945C2.21981 18.1412 1.8605 17.7668 1.60989 17.3393C1.27056 16.7605 1.0401 16.117 1.02208 15.4283C1.00373 14.7266 1.00889 14.0319 1.25418 13.3503C1.7359 12.0117 2.62967 11.0954 3.93174 10.5394C4.4977 10.2977 5.0761 10.1985 5.68179 10.1989C6.8714 10.1996 8.06118 10.1866 9.25054 10.2035C10.0377 10.2147 10.722 10.4957 11.2819 11.0703C12.424 12.2426 13.5745 13.4067 14.7229 14.5728C14.9903 14.8443 15.1252 14.844 15.3906 14.5794C15.9498 14.0218 16.5043 13.4594 17.0673 12.9058C17.7639 12.2208 18.4538 11.5281 19.1724 10.8668C19.6306 10.4452 20.1899 10.2032 20.8265 10.2006C22.1161 10.1955 23.406 10.1808 24.6951 10.2046C25.8408 10.2258 26.811 10.6924 27.6763 11.4357C28.458 12.1072 28.9117 12.9643 29.1256 13.9368C29.3455 14.9369 29.2496 15.9355 28.8454 16.8913C28.4411 17.8476 27.7938 18.5868 26.89 19.1022C26.2351 19.4756 25.5391 19.7262 24.7821 19.7336C23.2428 19.7486 21.7032 19.7387 20.1637 19.7391C20.055 19.7391 19.9462 19.7391 19.7995 19.7391C19.7995 19.861 19.7995 19.9668 19.7995 20.0725C19.7995 21.592 19.795 23.1115 19.801 24.631C19.8051 25.6639 19.4285 26.5475 18.853 27.3914C18.1012 28.4941 17.0194 29.0481 15.7744 29.2536C14.7488 29.4228 13.7226 29.259 12.8148 28.6783C12.5016 28.4779 12.1873 28.2671 11.9167 28.0147C11.066 27.2209 10.4834 26.0391 10.4395 24.8091C10.3795 23.1291 10.3835 21.6798 10.3795 20.0391C10.3792 19.9375 10.3953 19.8445 10.3732 19.7431Z" fill="#0583F2"/>
<path d="M19.0485 3.10673C19.3925 3.69255 19.5473 4.33015 19.6104 4.99458C19.6744 5.66764 19.5837 6.29828 19.3669 6.92656C19.2249 7.33802 18.9402 7.93556 18.6696 8.31849C18.2236 8.94976 17.8416 9.41654 17.3718 9.9345C16.8403 10.5206 16.4053 11.0792 15.6681 11.7141C15.3048 12.0658 14.7761 12.0376 14.4385 11.6814C13.448 10.7603 12.5086 9.77493 11.6937 8.82289C11.0243 8.04086 10.5789 7.17404 10.469 6.16669C10.3328 4.9171 10.5816 3.73099 11.3765 2.67159C12.1958 1.57967 13.2773 0.982804 14.5833 0.848468C15.8051 0.722778 16.955 1.03883 17.932 1.83804C18.3704 2.19663 18.763 2.55893 19.0485 3.10673ZM13.5816 3.46784C13.4143 3.63753 13.2285 3.7927 13.083 3.97932C12.3046 4.97769 12.4049 6.33462 13.3163 7.28681C14.228 8.23937 15.747 8.24803 16.6798 7.37557C17.2771 6.81689 17.5198 6.1418 17.4944 5.33256C17.4661 4.42735 16.9017 3.64626 16.1547 3.26655C15.2765 2.82011 14.4291 2.88907 13.5816 3.46784Z" fill="#F89D1C"/>
</svg>
